<?xml version="1.0" encoding="UTF-8"?>
<svg id="Layer_1" xmlns="http://www.w3.org/2000/svg" width="828.35mm" height="348.88mm" version="1.1" viewBox="0 0 2348.07 988.95">
  <!-- Generator: Adobe Illustrator 30.6.0, SVG Export Plug-In . SVG Version: 2.1.4 Build 109)  -->
  <g>
    <polygon points="2181.51 293.61 2125.69 291.02 2112.19 290.13 2112.27 282.31 2133.87 283.36 2181.71 286.1 2181.51 293.61" fill="#fbfbfb"/>
    <path d="M2066.38,279.56c1.07,2.58.72,5.22.16,7.97l-68.71-3.86c-.44-2.63-.23-4.63,0-7.47l12.88.48,55.67,2.88Z" fill="#fbfbfb"/>
    <path d="M2078.58,269.99c3.5,3.41,7.37,9.88,6.86,11.83-.24.93-2.49,2.58-3.3,1.39l-7.14-10.55c.63-1.15,2.56-2.85,3.59-2.67Z" fill="#fbfbfb"/>
    <path d="M2077.56,297.27c-.71.88-3.89-1.63-3.26-2.52l6.88-9.67c.77-1.09,2.45-.17,3.09.31.56.41,1.63,1.49.71,2.63l-7.43,9.25Z" fill="#fbfbfb"/>
    <path d="M2104.15,296.58c.49,1.02-3.08,3.11-3.85,2.28l-5.64-9.24c-.91-1.5-.72-2.72.3-3.41,1.54-1.04,2.72-.55,3.78,1.25l5.41,9.12Z" fill="#fbfbfb"/>
    <path d="M2098.18,283.08c-.68.91-2.09.68-2.81.43-.76-.26-2.2-1.43-1.21-2.61l7.68-9.21c.58-.69,3.39,1.88,2.77,2.72l-6.42,8.67Z" fill="#fbfbfb"/>
    <g>
      <path d="M1427.16,882.13c-10.38,8.3-29.9-1.71-38.35-11.68-5.95-7.02-8.88-15.72-10.36-24.74,3.32-4.76,5.03-9.57,6.53-14.93l3.33-11.92,35.09,5.2c-3.23,6.72-5.88,12.2-7.51,18.72-.81,2.89-1.06,5.82-.29,8.8,2.04,10.76,5.95,20.38,11.56,30.56Z" fill="#fbfbfb"/>
      <path d="M1667.21,859.96c-2.11,3.2-5.42,3.23-8.45,3.66-10.28,1.45-20.21.33-30.25-2.04-11.38-2.78-21.88-6.74-32.01-13.34l.71-31.34,34.49-2.99-.06,18.68c-.01,3.98,2.32,7.44,5.2,9.78l6.64,5.39,23.74,12.2Z" fill="#fbfbfb"/>
    </g>
    <g>
      <path d="M1640.34,841.97c20.11,15.54,39.99,17.79,53.11,25.77,4.19,2.55,6.92,7.45,4.29,12-1.95,3.38-6.06,5.2-9.88,5.94-10.7,2.08-21.23,2.96-32.15,2.15l-30.05-2.22-29.99-4.03c-12.14-1.63-7.11-21.85-1.63-34.99l.25-29.6-115.52,8.14c-18.12,1.28-35.08.35-52.77-.68l-6.78,16.67c-1.97,4.85-1.74,9.91-.02,14.91,2.6,7.59,4.3,15.55,8.91,22.13l11.51,16.44c2.1,3,3.62,6.19,3.93,9.98.38,4.76-2.23,8.65-6.54,10.34-4.79,1.88-9.78,2.35-14.73.98l-11.75-3.25c-15.3-5.95-27.86-16.15-37.74-29.15l-8.19-10.78c-4.9-6.45,6.19-20.87,12.11-29.13,2.67-3.73,4.15-8.23,5.34-12.62l3.43-12.62-7.44-2.25c-1.91-.58-3.43-2.41-3.05-4.61l5.21-30.54,17.9-74.99,21.57-79.6,20.44-71.51,10.74-35.07c-1.85-.94-3.33-.57-4.89-.88l-39.78-8.12-34.56-7.21c-.9-.19-1.94-.61-2.24-1.1-.27-.45-.2-1.6,0-2.41l4.24-16.85,15.45-68.45,5.53-26.64,4.39-20.53,5.65-29.07c1.15-.72,2.56-.82,4-.54l30.62,5.97c3.65-15.01,7.82-29.42,14.44-43.44,10.42-22.06,20.1-34.6,38.41-50.51,24.4-21.22,59.2-42.63,89.3-54.25,9.31-3.6,18.45-6.19,28.24-7.63,3.81-.57,7.2-.27,11.84-1.95-9.67-3.52-17.8-9.97-21.21-20.03-3.32-9.78-1.08-20.39,6.4-27.54,12.53-11.99,31.81-8.48,45.88,2.18,5.14-45.41,47.24-81.87,91.93-68.92,12.26,3.55,27.1,12.14,35.58,21.33,10.72,11.62,10.79,25.74,1.52,38.37l.37,18.32c.1,4.85,1.02,10.31-.19,15.08-2.58,10.18-9.12,18.96-17.02,25.62-19.5,16.44-38.47,7.43-42.38,10.63s-6.8,6.34-10.23,10.73l25.88,11.31,36.8,12.26c24.03,8.01,48.26,12.91,73.4,16.54l56.8,8.2,3.19,1.89c4.65.48,9.59.83,13.66-1.29l13.84-7.18c6.84-3.55,14-6.74,21.89-6.63,4.08.06,7.6.21,11.55-.82,4.28-1.11,9.12-.44,12.71,2.23,1.83,1.36,2.02,4.52.94,6.29-1.24,2.04-3.01,2.98-5.71,4.25,1.52,2.23,2.43,5.4.61,7.67-2.13,2.65-5.52,3.62-8.8,4.11l-11.29,1.69c-2.79.42-3.68,5.87-1.29,7.36l8.73,5.43c5.89,3.67,8.28,8.93,5.21,12.44-1.54,1.76-3.84,2.62-6.44,1.73l-10.51-3.59c-8.53-2.91-15.74,2.24-23.44.45l-10.33-2.4-16.62,1.57-2.46,10.05c-.5,2.06-4.08,1.37-5.81,1.46l-30.04,1.69c-28.23,1.58-55.57,2.24-83.84.53-25.29-1.53-49.35-5.73-73.81-11.69-5.59,10.13-12.07,18.6-19.32,27.1l-20.71,24.31-15.93,25.02-15.35,33.59c-1.49,3.26-3.64,7.64-3.86,11.06-.59,9.2,1.21,18.04,2.69,27.08l8.29,50.76,8.24,57.89c5.37,37.76,7.67,75,8.76,113.22l-.34,46.16-5.81,94.75c-.1,1.66-1.79,2.74-3.06,2.93l-14.89,2.22c-.97.14-1.33,1.03-1.36,1.93l-.38,14.01c-.14,5.16,2.38,9.39,6.4,12.5ZM1676.04,208.75l10.59,17.31c7.61-4.23,15.66-7.14,21.11-13.49l9.19-10.71c3-3.5,6.95-4.89,11.6-4.16,18.74,2.95,36.02-6.01,45.34-22,1.79-3.08,5.25-6.58,5.28-10.35l.18-26.78c.06-9-1.95-17.39-5.18-25.55l-6.62,6.46c-11.07,9.06-23.6,15.81-37.56,19.44-3.13.81-7.07,1.81-9.98.63s-5.02-1.24-7.16,1.25c-9.62,11.21-4.31,24.14-6.91,29.08-4.84,9.2-19.16,15.3-30.26,12.54-1.96-.49-3.05.75-4.32,1.82l-5.24,4.42c2.59,7.08,5.88,13.46,9.95,20.12ZM1665.78,185.27c1.72-.98,3.58-2.89,4.12-4.33-5.18-2.58-8.31-5.93-11.31-10.99-5.69,9.2-13.98,14.22-24.34,16.42,1.87,1.82,4.33.65,6.2,1.04,2.05.42,4.07,1.27,5.96.7,6.38-1.91,12.44-2.6,19.37-2.84ZM1664.81,237.69l19.65-10.77-11.58-18.63c-4.01-6.45-7.18-13.01-9.79-20.09l-15.66,2.35,5.65,21.65,9.26,24.74c.27.72.17,1.16,1.02,1.21.35.02.84-.13,1.45-.47ZM1688.61,318.97l13.89-19.5,10.9-21.16c.47-.91,1.9-1.51,2.66-.77l-7.76,17.49c22.94,5.96,45.95,10.18,69.68,11.19l22.89.98,13.8.22,41.9-1.17,41.78-2.46,4.63-23.12c1.21-6.06,1.6-11.86,1.03-18.17l-31.34-4-51.15-8.88c-27.02-4.69-53.01-11.44-78.35-21.6l-16.46-6.6-12.61-5.51c-.69,4.71-1.34,9.25-3.75,13.34l-11.83,20.13c-.51.86-1.56,1.02-2.16.84-.34-.1-.82-.62-1.13-1.26l-9.31-19.74-21.74,11.87c-1.18.64-2.77.65-3.33-.81l-10-25.75c-3.03-7.81-4.71-15.43-6.27-23.74-27.49-3.69-50.85,1.9-75.4,13.18-29.79,13.69-64.5,36.43-87.37,59.7-9.65,9.81-17.02,20.8-23.05,33.07-10.89,21.9-17.07,44.49-20.44,68.62,14.84,4.4,28.5,8.39,43.48,10.84l11.89-27.82,14.38-31.33c14.25-9.3,27.75-18.42,42.74-26.24l30.59-15.95c.63-.33,1.21,1.6.97,2.05-.38.71-.96.82-1.93,1.33l-24.26,12.74-5.78,21.54c-4.64,17.31-10.93,33.5-18.74,50.28,4.63,2.45,9.56,1,8.81,4.72l-3.18,15.76c14.09,8.93,28.17,15.63,43.49,21.04s33.57,10.65,49.46,10.17c11.65-33.85,24.25-55.86,47-82.33l11.35-13.2ZM1697.26,246.12l10.79-18.2c4.15-9.4,4.79-16.66.45-12.68-6.18,5.67-12.97,8.94-20.36,13.01l9.12,17.87ZM1924.93,292.31c11.71,4.11,19.76-2.54,29.8,1.19l8.79,3.27c1.94.72,3.41.34,4.31-.65,3.01-3.34-1.41-7.12-7.18-10.51l-5.72-3.35c-7.26-4.26,1.23-20.2,16.94-24.58,3.02-.84,6.76-1.63,8.41-4.5,2.43-4.25-6.33-8.44-22.92.06l-6.2,3.18c-.16-4.09,4.39-3.9,6.63-6.78-6-.05-11.13,1.21-16.12,3.93l-12.29,6.7c-3.14,1.71-6.28,3.92-9.88,4.01l-12.48.34-3.41,28.01,10.04-1.17c3.89-.45,7.63-.42,11.27.86ZM1975.91,264.43c1.21-2.03-1.11-4.6-3.16-4.05-5.39,1.44-9.92,3.69-13.69,8.5,3.14.44,5.8.04,8.99-1.06,2.71-.07,6.23-.64,7.86-3.39ZM1528.72,362.67l6.47-14.71,10.09-27.92,7.57-26.65-6.29,3.07-36.28,22.62-5.1,11.06-11.33,25.61,34.88,6.92ZM1493.33,442.35c.92.2.42,2.39-.68,2.17l-36.64-7.21c-.73,3.19-2.32,5.16-4,6.17-2.33,1.39-5.07,1.27-7.37.09-1.97-1.01-2.24-4.14-3.11-5.5-3.15-.36-4.68-3.57-6.58-4.67l-21.72-5.69c-.47-.93.32-1.93,1.39-1.72l19.16,3.7.16-9.1c.03-1.59-2.25-2.46-2.85-3.31-6.49-9.17,0-26.5,10.47-34.78l2.37-11.94c-4.35-2.56-8.99-1.75-8.23-6l3.18-17.78-7.94-1.56-24.11-4.66-4.86,25.38-7.41,35.68-10.99,51.99-11.24,46.99,77.24,16.17,48.14,9.5,8.54-32.41,6.99-24.94,24.51-101.28-13.28-3.06-28.79-5.5c-1.81-.35-3.2-.1-3.95,1.65l-7.77,18.21c-2.87.6-5.22-.04-8.82-1.14-1.7,4.15-4.67,9.11-3.55,13.69l3.51,14.3c.81,8.65-1.5,16.69-4.72,24.59-.99,2.42-1.87,4.3-4.1,6.21l27.05,5.78ZM1453.06,436.78c2.06-7.51,4.96-14.34,8.71-20.83,1.13-.09,1.75-.08,2,.23.93,1.12-5.13,9.12.18,16.99.59.87,2.2.1,2.56-.89l4.81-13.04c5.12-13.88-4.74-24.71-2.25-32.5l3.01-9.43-25.39-6.45-2.69,12.27c-.74,3.38-10.28,7.65-12.56,22.41-.64,4.15.04,7.92,3,10.89,1.27-1.22,1.58-2.16,1.97-3.21.5-1.33,2.41-.92,2.53.17l-2.56,13.16c-.71,3.66,1.45,7.36,5.23,8.36.83-6.23,1.88-11.61,4.77-16.35.5-.19,1.85.5,1.93.86.52,2.14-7.29,19.16-1.76,21.8,2.48,1.19,5.53-.92,6.5-4.45ZM1462.01,435.6c-1.75-2.92-2.34-3.88-2.33-6.24.56-1.38-1.78-1.34-.97.14-.98,1.87-1.84,3.48-1.54,5.43,1.73.46,2.76.86,4.84.66ZM1667.21,859.96l-23.74-12.2-6.64-5.39c-2.88-2.33-5.21-5.8-5.2-9.78l.06-18.68-34.49,2.99-.71,31.34c10.12,6.6,20.63,10.56,32.01,13.34,10.04,2.37,19.97,3.49,30.25,2.04,3.04-.43,6.34-.46,8.45-3.66ZM1427.16,882.13c-5.61-10.17-9.52-19.8-11.56-30.56-.77-2.98-.52-5.91.29-8.8,1.63-6.52,4.28-12,7.51-18.72l-35.09-5.2-3.33,11.92c-1.5,5.36-3.21,10.18-6.53,14.93,1.48,9.02,4.42,17.72,10.36,24.74,8.45,9.98,27.97,19.98,38.35,11.68Z" fill="#020202"/>
      <g>
        <path d="M1665.78,185.27c-6.93.24-12.99.92-19.37,2.84-1.89.57-3.91-.28-5.96-.7-1.87-.38-4.33.79-6.2-1.04,10.36-2.21,18.65-7.22,24.34-16.42,3,5.06,6.13,8.41,11.31,10.99-.55,1.44-2.4,3.35-4.12,4.33Z" fill="#fbfbfb"/>
        <g>
          <path d="M1676.04,208.75c-4.07-6.66-7.36-13.04-9.95-20.12l5.24-4.42c1.27-1.07,2.36-2.31,4.32-1.82,11.1,2.76,25.42-3.34,30.26-12.54,2.59-4.93-2.71-17.87,6.91-29.08,2.14-2.49,4.16-2.46,7.16-1.25s6.85.18,9.98-.63c13.95-3.62,26.48-10.38,37.56-19.44l6.62-6.46c3.23,8.16,5.24,16.55,5.18,25.55l-.18,26.78c-.03,3.78-3.48,7.27-5.28,10.35-9.31,15.99-26.59,24.95-45.34,22-4.65-.73-8.6.66-11.6,4.16l-9.19,10.71c-5.44,6.35-13.5,9.25-21.11,13.49l-10.59-17.31ZM1759.1,153.07c3.63,1.59,7.01-.71,7.95-4.45.61-2.45-1.27-5.97-4.76-6.48-2.9-.43-5.47,2.07-6.01,4.44s.2,5.34,2.83,6.49Z" fill="#fbfbfb"/>
          <path d="M1697.26,246.12l-9.12-17.87c7.38-4.07,14.17-7.34,20.36-13.01,4.34-3.98,3.7,3.27-.45,12.68l-10.79,18.2Z" fill="#fbfbfb"/>
          <g>
            <path d="M1924.93,292.31c-3.64-1.28-7.38-1.31-11.27-.86l-10.04,1.17,3.41-28.01,12.48-.34c3.59-.1,6.74-2.3,9.88-4.01l12.29-6.7c4.99-2.72,10.12-3.98,16.12-3.93-2.24,2.89-6.79,2.7-6.63,6.78l6.2-3.18c16.59-8.5,25.34-4.3,22.92-.06-1.64,2.88-5.38,3.66-8.41,4.5-15.71,4.39-24.2,20.33-16.94,24.58l5.72,3.35c5.78,3.39,10.2,7.16,7.18,10.51-.9.99-2.37,1.37-4.31.65l-8.79-3.27c-10.04-3.73-18.09,2.92-29.8-1.19Z" fill="#fbfbfb"/>
            <path d="M1975.91,264.43c-1.64,2.75-5.15,3.32-7.86,3.39-3.19,1.1-5.85,1.5-8.99,1.06,3.77-4.81,8.3-7.06,13.69-8.5,2.06-.55,4.37,2.02,3.16,4.05Z" fill="#fbfbfb"/>
          </g>
          <path d="M1759.1,153.07c-2.62-1.15-3.38-4.1-2.83-6.49s3.12-4.87,6.01-4.44c3.49.51,5.37,4.03,4.76,6.48-.94,3.74-4.32,6.04-7.95,4.45Z" fill="#020202"/>
        </g>
        <g>
          <path d="M1688.61,318.97l-11.35,13.2c-22.76,26.48-35.36,48.49-47,82.33-15.89.48-33.9-4.68-49.46-10.17s-29.4-12.11-43.49-21.04l3.18-15.76c.75-3.72-4.17-2.27-8.81-4.72,7.81-16.78,14.1-32.97,18.74-50.28l5.78-21.54,24.26-12.74c.98-.51,1.56-.62,1.93-1.33.24-.45-.34-2.38-.97-2.05l-30.59,15.95c-15,7.82-28.49,16.93-42.74,26.24l-14.38,31.33-11.89,27.82c-14.98-2.45-28.63-6.44-43.48-10.84,3.37-24.13,9.54-46.73,20.44-68.62,6.04-12.27,13.41-23.26,23.05-33.07,22.88-23.27,57.59-46.01,87.37-59.7,24.55-11.28,47.91-16.87,75.4-13.18,1.56,8.31,3.24,15.93,6.27,23.74l10,25.75c.57,1.46,2.15,1.45,3.33.81l21.74-11.87,9.31,19.74c.3.64.79,1.16,1.13,1.26.6.17,1.65.02,2.16-.84l11.83-20.13c2.41-4.1,3.06-8.63,3.75-13.34l12.61,5.51,16.46,6.6c25.33,10.16,51.32,16.91,78.35,21.6l51.15,8.88,31.34,4c.58,6.31.19,12.11-1.03,18.17l-4.63,23.12-41.78,2.46-41.9,1.17-13.8-.22-22.89-.98c-23.73-1.02-46.74-5.23-69.68-11.19l7.76-17.49c-.77-.74-2.2-.14-2.66.77l-10.9,21.16-13.89,19.5Z" fill="#fbfbfb"/>
          <polygon points="1528.72 362.67 1493.85 355.75 1505.17 330.14 1510.28 319.08 1546.56 296.46 1552.85 293.38 1545.28 320.03 1535.19 347.96 1528.72 362.67" fill="#fbfbfb"/>
          <path d="M1664.81,237.69c-.61.33-1.1.49-1.45.47-.85-.05-.75-.49-1.02-1.21l-9.26-24.74-5.65-21.65,15.66-2.35c2.6,7.08,5.78,13.64,9.79,20.09l11.58,18.63-19.65,10.77Z" fill="#fbfbfb"/>
        </g>
      </g>
      <g>
        <path d="M1493.33,442.35l-27.05-5.78c2.23-1.91,3.11-3.79,4.1-6.21,3.22-7.91,5.54-15.94,4.72-24.59l-3.51-14.3c-1.12-4.58,1.85-9.54,3.55-13.69,3.59,1.1,5.95,1.74,8.82,1.14l7.77-18.21c.75-1.76,2.14-2,3.95-1.65l28.79,5.5,13.28,3.06-24.51,101.28-6.99,24.94-8.54,32.41-48.14-9.5-77.24-16.17,11.24-46.99,10.99-51.99,7.41-35.68,4.86-25.38,24.11,4.66,7.94,1.56-3.18,17.78c-.76,4.25,3.88,3.44,8.23,6l-2.37,11.94c-10.47,8.29-16.96,25.61-10.47,34.78.6.84,2.88,1.71,2.85,3.31l-.16,9.1-19.16-3.7c-1.07-.21-1.86.79-1.39,1.72l21.72,5.69c1.9,1.1,3.42,4.31,6.58,4.67.87,1.36,1.15,4.49,3.11,5.5,2.3,1.18,5.03,1.3,7.37-.09,1.68-1,3.28-2.98,4-6.17l36.64,7.21c1.1.22,1.6-1.97.68-2.17ZM1487.4,467.57c.76-2.54-.88-2.5-1.96-2.72l-76.47-15.17c-.5-.1-.53,1.92.11,2.03l1.85.34,44.19,8.9,32.28,6.62ZM1479.18,487.82l-13.65-2.96-43.95-8.9-17.99-3.69c-.35.16-.7,1.36-.5,2.38l76.66,15.48c.87.17,1.35-.07,1.63-.29.31-.25.28-1.51-.07-1.58l-2.12-.44Z" fill="#fbfbfb"/>
        <g>
          <path d="M1453.06,436.78c-.97,3.53-4.02,5.64-6.5,4.45-5.52-2.64,2.29-19.67,1.76-21.8-.09-.36-1.43-1.05-1.93-.86-2.89,4.74-3.94,10.12-4.77,16.35-3.78-1-5.94-4.7-5.23-8.36l2.56-13.16c-.12-1.1-2.03-1.5-2.53-.17-.4,1.05-.7,2-1.97,3.21-2.96-2.97-3.64-6.74-3-10.89,2.28-14.76,11.82-19.03,12.56-22.41l2.69-12.27,25.39,6.45-3.01,9.43c-2.49,7.78,7.37,18.62,2.25,32.5l-4.81,13.04c-.36.99-1.98,1.75-2.56.89-5.31-7.87.75-15.87-.18-16.99-.25-.3-.87-.32-2-.23-3.75,6.48-6.65,13.31-8.71,20.83Z" fill="#fbfbfb"/>
          <path d="M1462.01,435.6c-2.08.2-3.11-.21-4.84-.66-.3-1.95.55-3.56,1.54-5.43-.81-1.49,1.53-1.53.97-.14,0,2.36.58,3.32,2.33,6.24Z" fill="#fbfbfb"/>
        </g>
        <path d="M1479.18,487.82l2.12.44c.34.07.38,1.33.07,1.58-.27.22-.76.47-1.63.29l-76.66-15.48c-.2-1.02.15-2.21.5-2.38l17.99,3.69,43.95,8.9,13.65,2.96Z" fill="#020202"/>
        <path d="M1487.4,467.57l-32.28-6.62-44.19-8.9-1.85-.34c-.64-.12-.6-2.13-.11-2.03l76.47,15.17c1.08.21,2.72.18,1.96,2.72Z" fill="#020202"/>
      </g>
    </g>
    <g>
      <path d="M2342.86,244.66l-14.42,55.93c-9.16,29.81-19.79,58.35-33.06,86.49-3.12.57-5.82-.14-8.78-.76l-39.8-8.39-73.46-16.05c-1.25-.27-.41-2.96-.04-3.78l16.63-36.46c11.47-25.15,20.22-50.84,26.07-77.91l8.5-39.38c.45-2.09,3.19-.76,4.25-.61l38.79,5.67,10.65,1.08,7.99,1,10.21,1.03,11.8.97,13.99.97,23.28.8c1.03.04,1.62.41,2.1.85.85.77.4,1.58.17,2.75l-4.88,25.8ZM2313.67,335.39l16.39-50.74,7.8-30.21,3.93-19.04,3.15-17.06-16.52-.75c-34.28-1.55-67.79-5.49-101.5-11.67l-4.74,23.41c-8.58,42.32-26.79,91.15-46.34,130.14l28.75,6.52,57.76,12.19,30.93,6.46,20.4-49.24Z" fill="#020202"/>
      <path d="M2313.67,335.39l-20.4,49.24-30.93-6.46-57.76-12.19-28.75-6.52c19.55-38.98,37.76-87.82,46.34-130.14l4.74-23.41c33.72,6.18,67.22,10.12,101.5,11.67l16.52.75-3.15,17.06-3.93,19.04-7.8,30.21-16.39,50.74ZM2310.14,256.04c1.37.15,1.65-1.02,1.11-1.75-.27-.36-.68-.4-1.67-.52l-67.21-8.18c-2.12-.71-2.5,2.23-.33,2.17l37.47,4.85,30.63,3.43ZM2303.67,277.11c.9.12,1.46-.04,1.8-.25.36-.23.24-1.73-.36-1.81l-69.15-9.27c-.64-.09-.89,2.03.11,2.17l18.46,2.67,49.14,6.49ZM2298.28,296.47l-48.39-6.92-19.29-2.81c-.82-.12-.95,1.56-.45,1.91s.95.27,1.81.4l66.82,9.81c.73-.48.72-2.11-.51-2.39ZM2274.97,318.15c1.38.21,1.5-2.16.47-2.32l-30.8-4.82-20.02-3.3c-1.32-.22-2.51.26-2.23,2.26l52.58,8.18Z" fill="#fbfbfb"/>
      <path d="M2298.28,296.47c1.22.27,1.23,1.91.51,2.39l-66.82-9.81c-.87-.13-1.3-.03-1.81-.4s-.37-2.03.45-1.91l19.29,2.81,48.39,6.92Z" fill="#020202"/>
      <path d="M2310.14,256.04l-30.63-3.43-37.47-4.85c-2.17.06-1.78-2.88.33-2.17l67.21,8.18c.99.12,1.41.16,1.67.52.54.73.26,1.91-1.11,1.75Z" fill="#020202"/>
      <path d="M2303.67,277.11l-49.14-6.49-18.46-2.67c-1-.14-.75-2.26-.11-2.17l69.15,9.27c.6.08.72,1.58.36,1.81-.33.21-.9.36-1.8.25Z" fill="#020202"/>
      <path d="M2274.97,318.15l-52.58-8.18c-.28-2.01.91-2.48,2.23-2.26l20.02,3.3,30.8,4.82c1.03.16.91,2.53-.47,2.32Z" fill="#020202"/>
    </g>
  </g>
  <g>
    <g>
      <path d="M250.25,944.55c-4.01,5-12.89,3.48-20,.52l-11.35-4.72c-12.85-5.34-35.58-22.5-44.69-34.67l7.74-18.4,13.35,5.65,36.12,12.06c-.63,5.33-.32,10.15,1.94,14.88,4.34,9.11,9.66,17.16,16.89,24.68Z" fill="#fcfcfc"/>
      <path d="M476.31,956.28c-1.67,8.04-11.89,8.18-21.64,8.29-11.47.13-22.18-2.05-33.22-4.72s-22.48-5.77-33.23-10.99l.08-16.52,53.04-2.92c.91,3.91,2.33,7.09,5.09,9.39,8.96,7.48,18.78,13.09,29.87,17.47Z" fill="#fcfcfc"/>
    </g>
    <g>
      <g>
        <path d="M493.91,958.89c7.1,2.13,13.53,4.09,19.25,8.2,3.62,2.59,5.89,7.58,3.67,11.71-2.1,3.9-6.4,6.11-10.63,7.22-7.22,1.89-14.32,2.99-21.84,2.94l-60.64-.42-16.09-.42-18.46-2.11c-11.31-1.29-9.17-23.39-3.89-37.79,1.01-2.76.31-6.67.32-9.55l.03-6.4-20.01-1.07c-7.2-.39-14.19-1.5-20.93-3.6-2.75-.86-3.79-3.29-3.77-6.04l.53-62.4.65-125.47c0-1.15-.34-2.2-.93-3.13l-8.11,25.54-7.77,22.12-10.04,27.98-7.69,22.33-12.87,37.13-14.34,39.72c-.88,2.44-1.47,4.73-4.4,5.51-3.2.86-6.84,1.26-10.33.61l-31.23-5.81c-1.87,3.35-.99,6.66.22,9.85,3.28,8.68,8.16,16,13.94,23.11,2.32,2.85,4.57,4.61,7.92,6.33l13.77,7.06c7.62,3.91,15.05,8.77,14,15.72-.52,3.47-2.92,6.4-6.74,7.64s-7.67,2.23-11.84,2.14l-23.78-.54c-11.22-.25-22.04-3.72-32.17-8.45l-19.77-9.24c-10.48-4.9-20.1-10.71-29.35-17.62-7.89-5.89-4.55-14.22.37-22.84,3.02-5.29,6.46-10.01,10.85-14.21l7.91-18.38-14.97-8.84c-1.63-.96-2.58-2.47-1.77-4.67l4.06-11.05,26.42-68.31,9.57-23.65,22.16-54.52,13.84-38.36c11.92-33.04,20.32-66.52,26.92-101.04l4.84-25.33,3.29-25.82c1.87-14.65,5.79-28.42,11.96-41.79l15.49-27.39c-2.56-1.41-5.37-3.24-5.24-5.84.19-3.78,2.85-6.7,4.58-9.84l10.66-19.43,21.08-44.93,18.67-38.29,12.74-23.28,26.6-46.36c8-13.95,16.87-26.6,26.71-39.2l11.88-13.3c2.49-2.79,5.44-15.72,13.81-11.41,1.37.71,3.15.86,3.78-.9l1.08-3.01.72-1.62c.14-.32-.45-1.29-1.17-1.38-8.53-1.11-16.51-3.04-24.31-6.66l-5.55-3.69c-9.41-1.21-17.83-4.41-24.6-11.16-10.06-10.03-6.18-25.58,1.49-37.86l15.75-25.21,19.21-29.72c6.11-9.45,19.66-19.56,31.29-22.56,21.76-5.62,39.51-.57,59.76,4.98,11.05,3.03,20.69,8.09,29.25,15.68,11.74,10.4,15.22,28.03,6.96,41.93l2.83,16.12c1.05,5.96,2.57,11.87,2.17,18.08-.43,6.62-2.05,13.32-5,19.09-8.86,17.34-21.5,25.33-40.5,28-5.24.74-8.81,2.76-10.83,7.79l-6.13,15.29c6.47,3.38,12.46,5.23,10.13,12.73-1.09,3.51.25,4.88,2.89,6.56l23.22,14.74,19.97,12.07c13.01,7.87,26.08,14.8,40.13,20.74l13.25,6.68,35.04,8.19,81.73,18.17,17.03,4.95c1.35.39,2.55,1.65,2.24,3.25-.81,4.24,6.37,3.48,14.61,1.73l17.17-3.65c13.67-.85,27,2.96,38.46,10.17,1.14.72,1.89.73,2.64-.46l10.93-17.21,6.03-11,12.5-24.41c4.47-.59,8.82.14,13.45.57l7.69.72,37.96,7.84,33.5,6.45,44.83,6.07,8.76,1.11c.95.12,1.98,1.06,1.64,1.94l-5.73,14.7-16.92,37.99-21.72,43.26-19.99,31c-1.09,1.68-2.18,2.78-4.58,2.18l-27.28-6.83-42.02-7.95-34.43-7.5-24.48-6.26c-19.91,15.58-42.23,10.69-63.58-.55-3.76-1.98-7.2-4.35-11.58-4.76-1.02,2.53-1.99,5.53-4.03,6.49-3.37,1.58-7.17.08-10.79-.53-21.45-3.59-42.01-8.16-62.96-13.85l-20.47-5.56-22.48-6.62c-29.11-8.57-57.53-17.59-85.49-29.25l-17.8-7.42-12.75,27.63-13.04,33.05c-5.73,14.52-8.21,29.37-11.36,44.65l-4.44,21.56c-.38,1.83-1.83,3.91-3.65,4.04l-6.97.48c-.32,2.78.16,5.28.61,8.1l10.36,64.83,12.38,91.75,4.93,40.9,1.2,15.82,2.44,50.51,3.77,55.97,2.74,56.86-.41,47.2c-.02,1.78-.37,4.09-2.27,4.66l-10.55,3.19-25.49,4.52c-.86.15-1.91.53-2.08,1.07-.06.21,1.32,4.16,2.61,5.43,5.41,5.35,11.54,9.39,18.42,12.63l12.89,6.06,15.82,4.75ZM448.31,205.53l37.21,16.12,11.49,4.52c2.65-8.34,7.88-22.5,12.77-23.51l12.54-2.59c20.94-4.33,35.53-23.2,36.95-43.76.38-5.45-1.14-10.8-2.08-16.17l-3.89-22.18c-1.08-6.16-3.03-11.91-6.31-17.2l-6.17,8.96-10.03,9.97c-9.32,7.58-19.71,12.97-31.09,17.04-1.21.43-3.49.11-4.35,1.59-3.83,6.6-6.45,14.35-5.89,22.24l4.62,19.3c1.78,7.45-2.05,14.37-9.13,16.93-6.26,2.27-12.93,1.96-19.14-.48-2.95-1.16-7.79,1.33-13.94.55l-3.58,8.67ZM847.79,424.26l36.23,7.16,34.7,7.3c3.04.64,5.64,2.35,9.11,2.35,7.22-9.13,13.25-18.53,18.68-28.73l13.21-24.84,12.38-25.71,19.97-46.77-58.25-7.74-23.49-4.49-19.6-4.46c-13.95-3.18-27.59-5.78-41.84-6.1l-11.88,23.75-18.02,29.5c1.43,2.52,1.83,5.39.64,7.33-.84,1.38-2.99,3.11-5.12,3.14-2.95.05-3.83,1.17-5.41,3.11l-19.74,24.22,15.17,3.61c2.19.52,4.86,1.7,5.92,3.77,1.78,3.44,1.23,7.78-.99,10.71l-9.06,11.97,18.16,4.58,29.22,6.33ZM495.85,350.98l-29.22-14.3-21.03-11.18c-1.11-.59-2.16.31-1.5,1.28l10.32,5.03,9.65,5.38,30.72,15.42c1.35.68,2.39-.67,1.06-1.62ZM791,377.52l16.87-20.73c-1.37-1.33-2.8-.9-4.18-1.25l-14.84-3.81c-.18-1.51.8-2.21,1.72-1.99l16.11,3.83c3.56.85,7.23.23,10.15-1.73,4.5-3.01-4.66-7.64-12.36-11.21-13.08-6.06-27.2-6.8-40.98-2.34-6.15,1.99-12.2,2.56-18.95,1.88l-3.24,16.98-3.08,12.95,18.7-2.95c9.97-1.58,25.02,3.08,34.09,10.35ZM804.01,389.44l-23.27-5.15-11.68-3.83c-.4-1.26.38-2.18,1.49-1.87l14.26,3.88c1.01.27,3.27-1.89,3.12-3.02-4.7-5.13-11.76-7.13-18.4-8.78-13.14-3.28-22.47,2.58-35.98,2.63l-9.86,33.63,10.26,4.42c9.75,4.2,18.89,9.18,29.65,10.67s21.54-1.14,30.25-7.24c7.02-4.91,17.26-16.96,14.51-22.18-.59-1.12-2.03-2.64-4.35-3.16ZM318.74,520.53c.53-10.52,2.6-20.43,5.43-30.32.28-.97,1.54-1.22,2-.79s.55.99.25,2.01c-3.83,13.1-5.71,26.37-4.71,40.14,1.66,23.06,15.26,57.58,17.15,85.92l4.47,67.01,1.11,29.04.34,36.06-.39,83.91-.64,60.01-.11,28.04c0,2.05,1.19,3.52,3.19,3.99,9.04,2.16,17.94,3.63,27.23,3.67l36.57.14c17.99-1.17,35.4-2.35,53.02-5.76,6.33-1.22,12.19-2.5,18.16-5l.8-18.16c.03-34.64-2.17-68.23-4.12-102.91l-4.37-77.96-2.72-37.03-8.6-68.03-9.19-64.87-5.38-34.54-3.63-21.56-.97-8.91-7.59.3-16.37-.66-28.36-2.42c-30.88-3.64-59.3-11.79-87.47-25.18-13.44,20.53-23.99,42.63-26.84,66.22l-2.83,23.4-7.11,37.69c-4.93,26.13-11.08,51.25-19.62,76.44l-8.62,25.42-10.06,27.89-7.51,19.56-12.69,30.31-14.67,36.18-7.01,18.05-15.03,38.92-6.51,17.66c3.85,3.22,7.62,5.45,11.97,7.62,21.26,10.59,43.27,18.08,66.51,23.26,9.36,2.08,18.28,3.74,27.84,3.71,3.32,0,5.27-1.42,6.29-4.33l24.57-70.36,23.03-64.96,7.54-22.58,4.72-15.2,3.96-13.07-.5-17.2-.97-25.02-1.17-23.71-.92-13.13-.91-10.16-1.29-12.9c-1.52-15.26-5.07-29.64-8.49-44.65l-7.57-33.2-1.22-18.01ZM250.25,944.55c-7.23-7.51-12.55-15.57-16.89-24.68-2.26-4.73-2.57-9.55-1.94-14.88l-36.12-12.06-13.35-5.65-7.74,18.4c9.11,12.17,31.85,29.33,44.69,34.67l11.35,4.72c7.1,2.95,15.98,4.47,20-.52ZM476.31,956.28c-11.09-4.38-20.91-9.99-29.87-17.47-2.76-2.31-4.19-5.49-5.09-9.39l-53.04,2.92-.08,16.52c10.75,5.21,21.71,8.2,33.23,10.99s21.74,4.84,33.22,4.72c9.76-.11,19.97-.25,21.64-8.29Z" fill="#040404"/>
        <path d="M495.85,350.98c1.33.95.28,2.3-1.06,1.62l-30.72-15.42-9.65-5.38-10.32-5.03c-.67-.97.38-1.87,1.5-1.28l21.03,11.18,29.22,14.3Z" fill="#fcfcfc"/>
      </g>
      <g>
        <path d="M318.74,520.53l1.22,18.01,7.57,33.2c3.42,15,6.97,29.39,8.49,44.65l1.29,12.9.91,10.16.92,13.13,1.17,23.71.97,25.02.5,17.2-3.96,13.07-4.72,15.2-7.54,22.58-23.03,64.96-24.57,70.36c-1.02,2.91-2.97,4.32-6.29,4.33-9.56.02-18.48-1.63-27.84-3.71-23.24-5.17-45.25-12.67-66.51-23.26-4.36-2.17-8.12-4.4-11.97-7.62l6.51-17.66,15.03-38.92,7.01-18.05,14.67-36.18,12.69-30.31,7.51-19.56,10.06-27.89,8.62-25.42c8.54-25.18,14.69-50.31,19.62-76.44l7.11-37.69,2.83-23.4c2.85-23.59,13.4-45.69,26.84-66.22,28.17,13.39,56.59,21.54,87.47,25.18l28.36,2.42,16.37.66,7.59-.3.97,8.91,3.63,21.56,5.38,34.54,9.19,64.87,8.6,68.03,2.72,37.03,4.37,77.96c1.94,34.68,4.15,68.27,4.12,102.91l-.8,18.16c-5.96,2.5-11.82,3.78-18.16,5-17.62,3.4-35.03,4.58-53.02,5.76l-36.57-.14c-9.3-.04-18.2-1.51-27.23-3.67-2-.48-3.2-1.94-3.19-3.99l.11-28.04.64-60.01.39-83.91-.34-36.06-1.11-29.04-4.47-67.01c-1.89-28.35-15.49-62.86-17.15-85.92-.99-13.77.89-27.04,4.71-40.14.3-1.02.22-1.57-.25-2.01s-1.73-.17-2,.79c-2.82,9.89-4.9,19.8-5.43,30.32ZM251.11,719.09c-.56,1.01.73,1.72,1.09,1.48.3-.19,1.15-.4,1.54-1.05,7.96-13.17,14.71-26.7,20.75-40.96.46-1.1-1.2-1.9-1.64-1l-8.55,17.52-6.51,12.54-6.66,11.46ZM362,813.74l15.66-95.88c.08-.52-2.22-.51-2.29-.09l-.33,1.84-5.7,36.31-9.41,56.51c-.17,1.01,1.05,1.86,2.08,1.31Z" fill="#fcfcfc"/>
        <path d="M362,813.74c-1.03.55-2.25-.3-2.08-1.31l9.41-56.51,5.7-36.31.33-1.84c.08-.42,2.38-.43,2.29.09l-15.66,95.88Z" fill="#040404"/>
        <path d="M251.11,719.09l6.66-11.46,6.51-12.54,8.55-17.52c.44-.91,2.11-.1,1.64,1-6.03,14.26-12.78,27.79-20.75,40.96-.39.65-1.24.86-1.54,1.05-.36.23-1.64-.47-1.09-1.48Z" fill="#040404"/>
      </g>
    </g>
    <g>
      <path d="M192.01,120.26c-10.68,36.54-28.34,74.23-47.56,107.14-1.08,1.84-1.73,3.39-4.29,2.36-27.16-10.95-54.68-19.1-83.3-25.7-15.78-3.64-30.54-7.95-44.94-14.91l-9.44-4.56c-1.07-.52-2.1-1.18-2.32-1.87-.43-1.37.03-2.52,1.03-3.66,6.25-7.1,10.98-14.89,16.36-22.69,15.42-22.37,31.31-50.5,39.99-76.07,8.6-25.33,13.25-52.17,21.73-78.21.61-1.86,2.28-2.43,4.14-1.88,11.45,3.37,21.92,8.04,32.82,12.95l31.02,13.95,21.91,9.19,20,7.02c7.38,2.59,14.48,4.93,22.03,6.82,1.7.43,2.3,2.23,1.68,3.75-3.66,8.9-6.56,17.63-9.28,26.86l-4.57,15.49-7.02,24.03ZM141.61,227.07l9.23-16.45,7.58-14.5,9.06-18.84,13.43-32.62,8.73-26.4,12.12-40.73c2.54-8.55,5.14-16.59,8.46-24.87-15.36-4.43-29.18-8.83-43.37-14.42-12.45-4.9-24.08-10.32-36.27-15.72l-24.33-10.79c-7.64-3.39-23.5-9.99-24.37-8.29-2.53,4.98-3.47,10.41-4.88,15.63l-4.9,18.05c-4.56,16.82-8.1,33.38-14.15,49.73-4.45,12.04-9.26,23.26-15.8,34.23-11.21,21.19-24.49,41.22-39.23,60.39,16.43,9.03,34.57,14.99,51.88,19.26l17.63,4.27c11.12,2.69,21.77,5.56,32.53,9.51l14.27,4.58,22.37,7.98Z" fill="#040404"/>
      <path d="M141.61,227.07l-22.37-7.98-14.27-4.58c-10.76-3.96-21.41-6.82-32.53-9.51l-17.63-4.27c-17.32-4.27-35.46-10.23-51.88-19.26,14.74-19.17,28.01-39.2,39.23-60.39,6.55-10.97,11.35-22.19,15.8-34.23,6.05-16.35,9.59-32.91,14.15-49.73l4.9-18.05c1.41-5.21,2.36-10.64,4.88-15.63.86-1.7,16.73,4.9,24.37,8.29l24.33,10.79c12.19,5.41,23.82,10.83,36.27,15.72,14.19,5.58,28.02,9.98,43.37,14.42-3.32,8.28-5.91,16.32-8.46,24.87l-12.12,40.73-8.73,26.4-13.43,32.62-9.06,18.84-7.58,14.5-9.23,16.45ZM169.3,97.3c1.23-.83.81-2.18-.49-2.65l-37.6-13.45-39.61-13.86c-.61.43-.57,2.07-.15,2.37l14.71,5.25,34.65,12.37c9.47,3.38,18.3,6.96,28.5,9.97ZM160.23,119.16c1.07.37,1.54-.8,1.43-1.12-.17-.51-.29-.89-1.12-1.18l-34.84-12.24-41.04-14.53c-.69-.24-1.71.67-1.29,2.11l46.21,16.4,30.65,10.56ZM152.94,138.43l-15.51-5.5-29.01-10.03-32.36-11.02c-.77.52-.59,2.44.46,2.79l41.77,14.14,32.56,11.39c.49.17,1.66.23,1.93.04.25-.18.47-.45.16-1.82ZM142.05,161.66c1.52.5,1.92-1.2,1.6-1.56-.26-.3-.53-.86-1.41-1.15l-47.85-15.81-26.94-8.3c-.61-.19-1.6.32-1.54,1.93l29.88,9.57,46.25,15.33Z" fill="#fcfcfc"/>
      <path d="M142.05,161.66l-46.25-15.33-29.88-9.57c-.06-1.61.93-2.12,1.54-1.93l26.94,8.3,47.85,15.81c.88.29,1.15.86,1.41,1.15.32.37-.08,2.07-1.6,1.56Z" fill="#040404"/>
      <path d="M169.3,97.3c-10.2-3.01-19.03-6.59-28.5-9.97l-34.65-12.37-14.71-5.25c-.42-.3-.46-1.93.15-2.37l39.61,13.86,37.6,13.45c1.3.47,1.72,1.82.49,2.65Z" fill="#040404"/>
      <path d="M160.23,119.16l-30.65-10.56-46.21-16.4c-.42-1.43.6-2.35,1.29-2.11l41.04,14.53,34.84,12.24c.83.29.95.67,1.12,1.18.11.32-.36,1.49-1.43,1.12Z" fill="#040404"/>
      <path d="M152.94,138.43c.31,1.37.1,1.64-.16,1.82-.27.19-1.43.13-1.93-.04l-32.56-11.39-41.77-14.14c-1.05-.36-1.24-2.28-.46-2.79l32.36,11.02,29.01,10.03,15.51,5.5Z" fill="#040404"/>
      <g>
        <path d="M190.48,423.76l-18.76,11.79-14.52,8.38c-1.97,1.14-3.16.07-4.34-1.57-15.58-21.56-30.5-42.68-44.43-65.46-14.78-24.18-27.96-48.31-40.14-73.8l-8.43-17.65c-.45-.95-.64-2.23-.47-2.89s1.11-1.9,2.14-2.08c11.69-2.07,22.73-4.65,34.46-7.37,32.33-7.49,77.1-23.79,104.58-41.44l15.33-9.84c1.03-.66,2.59.43,3.06,1.39l7.83,16.24c10.92,22.63,22.49,44.44,36.81,65.05l10.71,15.43,22.53,30.42c1.2,1.62,2.1,4.24.29,5.61l-10.21,7.74-22.58,15.34-16.54,10.59-38.01,22.84-19.31,11.3ZM155.83,441.8l21.05-12.98,19.24-11.71,21.55-12.56c14.78-8.62,28.94-17.18,43.19-26.68l22.24-14.83,12.71-9.58-8.29-10.81-26.96-37.95-19.91-33.1-24.13-46.79c-8.54,5.3-16.37,10.54-25.28,15.38-30.24,16.43-67.81,30.08-101.68,37.1l-27.58,5.72,9.5,20.7,5.54,10.56c6.72,14.18,13.72,27.61,21.85,41.03l20,33.04,20.55,30.44,16.41,23.02Z" fill="#040404"/>
        <path d="M155.83,441.8l-16.41-23.02-20.55-30.44-20-33.04c-8.13-13.43-15.13-26.86-21.85-41.03l-5.54-10.56-9.5-20.7,27.58-5.72c33.86-7.02,71.44-20.67,101.68-37.1,8.91-4.84,16.74-10.08,25.28-15.38l24.13,46.79,19.91,33.1,26.96,37.95,8.29,10.81-12.71,9.58-22.24,14.83c-14.25,9.5-28.41,18.06-43.19,26.68l-21.55,12.56-19.24,11.71-21.05,12.98ZM110.06,311.64l11.39-3.5,21.85-8.15c20.36-7.59,39.27-17.23,58.67-27.23,1.14-.59.88-2.14-.16-2.42l-21.15,10.29-27.55,12.44c-14.29,6.45-28.6,11.68-43.75,16.28-1.36.41-.94,2.79.7,2.29ZM122.99,334.47l14.03-5.7c25.96-10.56,51.04-21.86,75.76-35.14,1.14-.61,1.47-.59,1.7-1.57.12-.5-.73-1.75-1.72-1.21-16.75,9.12-33.38,17.46-50.98,24.82l-19.85,8.31-21.26,8.45c-.37,1.43.7,2.71,2.32,2.05ZM166.09,343.4l23.76-10.87,36.55-18.81c-.18-1.46-.34-1.58-.6-1.74-.29-.18-1.19,0-1.63.22l-32.41,16.52c-13.83,7.05-57.96,25.38-58.28,26.34-.23.68.36,1.72,1.21,1.36l31.41-13.02ZM154.26,375.54l13.95-6.64,23.15-11.34c.18-1.36-.96-2.41-1.69-2.05l-41.24,19.89c-.89.37-1.57.46-1.27,2.28,2.11.11,4.5-.9,7.1-2.14Z" fill="#fcfcfc"/>
        <path d="M166.09,343.4l-31.41,13.02c-.84.35-1.44-.68-1.21-1.36.32-.96,44.45-19.28,58.28-26.34l32.41-16.52c.44-.22,1.34-.39,1.63-.22.26.16.42.28.6,1.74l-36.55,18.81-23.76,10.87Z" fill="#040404"/>
        <path d="M122.99,334.47c-1.62.66-2.69-.63-2.32-2.05l21.26-8.45,19.85-8.31c17.59-7.36,34.23-15.71,50.98-24.82.99-.54,1.84.71,1.72,1.21-.23.98-.56.96-1.7,1.57-24.72,13.29-49.8,24.59-75.76,35.14l-14.03,5.7Z" fill="#040404"/>
        <path d="M110.06,311.64c-1.64.5-2.06-1.88-.7-2.29,15.14-4.6,29.46-9.83,43.75-16.28l27.55-12.44,21.15-10.29c1.04.29,1.3,1.84.16,2.42-19.4,10-38.31,19.63-58.67,27.23l-21.85,8.15-11.39,3.5Z" fill="#040404"/>
        <path d="M154.26,375.54c-2.6,1.24-4.99,2.25-7.1,2.14-.3-1.82.38-1.91,1.27-2.28l41.24-19.89c.74-.36,1.88.69,1.69,2.05l-23.15,11.34-13.95,6.64Z" fill="#040404"/>
      </g>
    </g>
    <g>
      <path d="M847.79,424.26l-29.22-6.33-18.16-4.58,9.06-11.97c2.22-2.93,2.77-7.27.99-10.71-1.07-2.07-3.74-3.25-5.92-3.77l-15.17-3.61,19.74-24.22c1.58-1.94,2.46-3.06,5.41-3.11,2.13-.04,4.29-1.77,5.12-3.14,1.19-1.95.79-4.82-.64-7.33l18.02-29.5,11.88-23.75c14.24.32,27.89,2.92,41.84,6.1l19.6,4.46,23.49,4.49,58.25,7.74-19.97,46.77-12.38,25.71-13.21,24.84c-5.42,10.2-11.46,19.6-18.68,28.73-3.47,0-6.08-1.71-9.11-2.35l-34.7-7.3-36.23-7.16ZM943.76,360.44c.98.18,2.17.49,2.58-.42.19-.42.37-.9-.1-1.53-.33-.45-.91-.35-1.76-.5l-25.27-4.69-19.45-3.64-50.94-10.84c-1.13-.24-1.75.67-1.59,1.23.22.76.53.94,1.61,1.18l37.77,8.26,15.88,3.3,26.98,5.02,14.29,2.65ZM921.6,374.34l-28.74-5.76-26.3-5.7-19.51-4.57-9.72-1.93c-.18.31-.23,1.82.21,2.25l11.4,2.68,85.68,17.8c1.31.27,2.02-.12,2.05-1.04.02-.56-.28-.94-1.14-1.1l-13.94-2.64ZM925.27,398.47c1.73.31,1.55-2.14.14-2.4l-17.82-3.19-56.73-12.22-23.25-5.52c-.61-.14-1.4.6-1.06,1.75l24.18,6.41,27.08,5.85,31.51,6.5,15.95,2.83Z" fill="#fcfcfc"/>
      <path d="M925.27,398.47l-15.95-2.83-31.51-6.5-27.08-5.85-24.18-6.41c-.34-1.15.45-1.9,1.06-1.75l23.25,5.52,56.73,12.22,17.82,3.19c1.42.25,1.59,2.71-.14,2.4Z" fill="#040404"/>
      <path d="M921.6,374.34l13.94,2.64c.86.16,1.16.54,1.14,1.1-.03.91-.74,1.31-2.05,1.04l-85.68-17.8-11.4-2.68c-.44-.43-.4-1.95-.21-2.25l9.72,1.93,19.51,4.57,26.3,5.7,28.74,5.76Z" fill="#040404"/>
      <path d="M943.76,360.44l-14.29-2.65-26.98-5.02-15.88-3.3-37.77-8.26c-1.08-.24-1.39-.42-1.61-1.18-.16-.56.46-1.47,1.59-1.23l50.94,10.84,19.45,3.64,25.27,4.69c.85.16,1.42.06,1.76.5.47.63.28,1.11.1,1.53-.4.91-1.6.6-2.58.42Z" fill="#040404"/>
    </g>
    <g>
      <path d="M804.01,389.44c2.32.51,3.76,2.04,4.35,3.16,2.75,5.21-7.49,17.26-14.51,22.18-8.71,6.09-19.65,8.71-30.25,7.24s-19.9-6.47-29.65-10.67l-10.26-4.42,9.86-33.63c13.52-.05,22.85-5.91,35.98-2.63,6.64,1.66,13.69,3.66,18.4,8.78.15,1.13-2.11,3.29-3.12,3.02l-14.26-3.88c-1.11-.3-1.9.62-1.49,1.87l11.68,3.83,23.27,5.15Z" fill="#fcfcfc"/>
      <path d="M791,377.52c-9.07-7.27-24.11-11.93-34.09-10.35l-18.7,2.95,3.08-12.95,3.24-16.98c6.76.68,12.81.11,18.95-1.88,13.78-4.46,27.9-3.72,40.98,2.34,7.7,3.57,16.86,8.2,12.36,11.21-2.92,1.96-6.59,2.57-10.15,1.73l-16.11-3.83c-.93-.22-1.9.48-1.72,1.99l14.84,3.81c1.39.36,2.81-.08,4.18,1.25l-16.87,20.73Z" fill="#fcfcfc"/>
      <g>
        <path d="M448.31,205.53l3.58-8.67c6.15.78,10.98-1.71,13.94-.55,6.21,2.44,12.87,2.75,19.14.48,7.08-2.57,10.92-9.48,9.13-16.93l-4.62-19.3c-.55-7.89,2.06-15.64,5.89-22.24.86-1.47,3.13-1.15,4.35-1.59,11.38-4.07,21.77-9.46,31.09-17.04l10.03-9.97,6.17-8.96c3.28,5.29,5.23,11.04,6.31,17.2l3.89,22.18c.94,5.37,2.45,10.72,2.08,16.17-1.42,20.55-16.01,39.43-36.95,43.76l-12.54,2.59c-4.88,1.01-10.12,15.16-12.77,23.51l-11.49-4.52-37.21-16.12ZM545.7,142.02c.37-3.67-1.73-6.05-4.56-6.28-2.6-.21-4.88,1.75-5.3,4.86-.47,3.5,1.11,6.12,4.54,6.53,2.28.28,4.95-1.47,5.31-5.11Z" fill="#fcfcfc"/>
        <path d="M545.7,142.02c-.36,3.64-3.03,5.39-5.31,5.11-3.43-.42-5.02-3.03-4.54-6.53.42-3.1,2.7-5.07,5.3-4.86,2.83.23,4.92,2.6,4.56,6.28Z" fill="#040404"/>
      </g>
    </g>
  </g>
</svg>