<svg xmlns="http://www.w3.org/2000/svg" viewBox="0 -104.00 590.29 108.00" width="590" height="108" role="img" aria-label="KGLOW">
<title>KGLOW 워드마크</title>
<defs>
<linearGradient id="ltw" x1="0" y1="0" x2="1" y2="1"><stop offset="0" stop-color="#FF8570"/><stop offset="1" stop-color="#FF6A57"/></linearGradient>
<linearGradient id="dkw" x1="0" y1="0" x2="1" y2="1"><stop offset="0" stop-color="#E85742"/><stop offset="1" stop-color="#D8402B"/></linearGradient>
<clipPath id="cpw"><circle cx="100" cy="100" r="100"/></clipPath></defs><path d="M32.510281502585855 -22.893979746678642 31.25654207054597 -49.54992103062773 79.14248552228175 -100.0H104.90930909541358L61.76158991669505 -53.60097240717228L48.822736985537766 -39.88874609024187ZM11.849478182775385 0.0V-100.0H34.82067758818246V0.0ZM80.32217955467468 0.0 44.6871728964727 -43.511969279365765 59.90687807748289 -60.017388746090234 107.3403115419157 0.0Z" fill="#22304F"/>
  <path d="M165.80048620358613 1.6823108606113157Q154.0024310179307 1.6823108606113157 144.04674677154625 -2.10340342510297Q134.09106252516182 -5.889117710817255 126.76346350376267 -12.846017466167043Q119.4358644823635 -19.80291722151683 115.37920782880678 -29.245045058994766Q111.32255117525007 -38.6871728964727 111.32255117525007 -50.0Q111.32255117525007 -61.3128271035273 115.37920782880678 -70.75495494100522Q119.4358644823635 -80.19708277848316 126.83489207519122 -87.15398253383296Q134.23391966801896 -94.11088228918274 144.24626056796012 -97.89659657489703Q154.25860146790126 -101.68231086061132 166.25617044997057 -101.68231086061132Q179.5617044997058 -101.68231086061132 190.21325601560807 -97.28571428571428Q200.8648075315103 -92.88911771081725 208.0914341457372 -84.46540831810721L193.32984422904212 -70.72363816543309Q187.83975411105263 -76.4970115512062 181.43464897339817 -79.28272583692049Q175.0295438357437 -82.06844012263478 167.3670527391533 -82.06844012263478Q160.15781487101668 -82.06844012263478 154.14930630825927 -79.7507509832461Q148.14079774550183 -77.43306184385743 143.79113375243875 -73.15604193118827Q139.44146975937568 -68.8790220185191 137.08068037533678 -63.01458610758415Q134.7198909912979 -57.150150196649214 134.7198909912979 -50.0Q134.7198909912979 -43.04936359976464 137.08068037533678 -37.156599362051345Q139.44146975937568 -31.26383512433805 143.79113375243875 -26.94371496701867Q148.14079774550183 -22.623594809699295 154.04954941005232 -20.27757734353225Q159.95830107460282 -17.93155987736521 167.11088228918274 -17.93155987736521Q174.0319748536744 -17.93155987736521 180.49495215385093 -20.161833018488124Q186.95792945402744 -22.392106159611036 193.18698708618498 -27.709795298999722L206.26869716019945 -11.031974853674399Q198.07404539964693 -4.802917221516831 187.3079650676659 -1.5603031804527578Q176.54188473568485 1.6823108606113157 165.80048620358613 1.6823108606113157ZM206.26869716019945 -11.031974853674399 185.17202935802544 -14.02468179988232V-51.593679353380196H206.26869716019945Z" fill="#22304F"/>
  <path d="M227.70662103991822 0.0V-100.0H250.90444705955218V-18.902016041621504H300.9607320925335V0.0Z" fill="#22304F"/>
  <g transform="translate(307.14,-106.00) scale(0.56000)" clip-path="url(#cpw)">
      <circle cx="100" cy="100" r="100" fill="url(#ltw)"/>
      <path d="M -10,114 C 45,138 125,108 210,26 L 210,210 L -10,210 Z" fill="#fff"/>
      <path d="M -10,128 C 45,152 125,120 210,38 L 210,210 L -10,210 Z" fill="url(#dkw)"/>
    </g>
  <path d="M460.07124276114087 0.0 427.29543835743704 -100.0H451.2346629091697L479.67782044532527 -11.433805085008206H467.6798798426806L497.43586448236346 -100.0H518.8676101700164L547.3698553776594 -11.433805085008206H535.8275990213991L565.0688117432102 -100.0H587.1557554736613L554.3799510699575 0.0H529.6155585147563L504.27599021399146 -77.76290607289957H510.8870583134619L484.9218358056424 0.0Z" fill="#22304F"/>
</svg>
