<svg width="1137" height="243" viewBox="0 0 1137 243" fill="none" xmlns="http://www.w3.org/2000/svg">
<path d="M98.5922 197.184C153.043 197.184 197.184 153.043 197.184 98.5922C197.184 44.1412 153.043 0 98.5922 0C44.1412 0 0 44.1412 0 98.5922C0 153.043 44.1412 197.184 98.5922 197.184Z" fill="url(#paint0_radial_488_373)"/>
<path d="M98.5922 197.184C153.043 197.184 197.184 153.043 197.184 98.5922C197.184 44.1412 153.043 0 98.5922 0C44.1412 0 0 44.1412 0 98.5922C0 153.043 44.1412 197.184 98.5922 197.184Z" fill="url(#paint1_radial_488_373)"/>
<path d="M98.5922 197.184C153.043 197.184 197.184 153.043 197.184 98.5922C197.184 44.1412 153.043 0 98.5922 0C44.1412 0 0 44.1412 0 98.5922C0 153.043 44.1412 197.184 98.5922 197.184Z" fill="url(#paint2_radial_488_373)"/>
<mask id="mask0_488_373" style="mask-type:luminance" maskUnits="userSpaceOnUse" x="0" y="0" width="198" height="198">
<path d="M98.5922 197.184C153.043 197.184 197.184 153.043 197.184 98.5922C197.184 44.1412 153.043 0 98.5922 0C44.1412 0 0 44.1412 0 98.5922C0 153.043 44.1412 197.184 98.5922 197.184Z" fill="white"/>
</mask>
<g mask="url(#mask0_488_373)">
<g filter="url(#filter0_f_488_373)">
<path d="M-0.5 111.5C17 145 77.5 124.5 118 102C143.118 88.0454 167.5 65.5 184 50.5C173.5 73.5 147.407 115.568 125 132C87 163.5 46 183 9 149L-0.5 111.5Z" fill="#7E1717" fill-opacity="0.3"/>
</g>
<path d="M0.5 111C13 158.5 98 118.5 126 100.5C150.171 84.9618 175.5 61.5 184.486 49.2964C176.5 66.5 160.5 94 132 122C103.5 150 34.5866 192.16 0.5 132V111Z" fill="url(#paint3_linear_488_373)"/>
<path d="M0.5 110.764C8.5 149.5 72.5 132.5 120 104.5C145.832 89.2728 173.747 62.1748 184.5 49.5C168.815 68.9197 153.5 89 133 109C91.5 149.488 11.3237 163.238 1.5 133L0.5 110.764Z" fill="white" fill-opacity="0.23"/>
</g>
<g clip-path="url(#clip0_488_373)">
<path d="M278 3.11548H321.251V66.4078L374.991 3.11548H426.261L367.169 69.9741L428.262 159.113H376.523L337.056 101.17L321.233 118.551V159.113H278V3.11548Z" fill="#D93636"/>
<path d="M423.45 81.5555V81.1052C423.45 35.6623 459.132 -0.000488281 507.285 -0.000488281C534.714 -0.000488281 554.123 8.24877 570.612 22.5139L545.202 53.2775C534.047 43.9115 523.126 38.5801 507.52 38.5801C484.993 38.5801 467.602 57.2941 467.602 81.1413V81.5916C467.602 106.988 485.227 125.053 509.971 125.053C520.675 125.053 528.695 122.82 534.948 118.587V99.6391H504.402V67.9929H575.983V137.968C559.475 151.782 536.75 162.247 508.204 162.247C459.601 162.247 423.486 128.818 423.486 81.5735L423.45 81.5555Z" fill="#14191E"/>
<path d="M595.721 3.11548H638.972V121.217H714.553V159.095H595.721V3.11548Z" fill="#14191E"/>
<path d="M719.311 81.5555V81.1052C719.311 36.3106 755.425 -0.0185547 803.596 -0.0185547C851.767 -0.0185547 887.431 35.8603 887.431 80.6549V81.1052C887.431 125.9 851.317 162.229 803.146 162.229C754.975 162.229 719.311 126.35 719.311 81.5555ZM843.045 81.5555V81.1052C843.045 58.3747 826.988 38.9943 803.128 38.9943C779.267 38.9943 763.445 58.1586 763.445 80.6549V81.1052C763.445 103.62 779.718 123.216 803.578 123.216C827.438 123.216 843.045 104.052 843.045 81.5555Z" fill="#14191E"/>
<path d="M882.687 3.11563H928.407L955.601 93.3712L985.696 2.68335H1022.93L1053.02 93.3712L1080.24 3.11563H1125.06L1072.88 160.212H1035.2L1003.99 70.4066L972.559 160.212H934.876L882.687 3.11563Z" fill="#14191E"/>
</g>
<path d="M287.778 242.709C282.84 242.709 279.247 239.824 278 235.326L282.327 234.3C282.84 236.695 285.065 238.578 287.68 238.578C289.343 238.578 291.347 237.82 292.301 235.913C292.936 234.642 292.936 233.126 292.936 230.951V206.799H297.336V230.951C297.336 233.982 297.483 235.913 296.187 238.162C294.403 241.267 291.323 242.709 287.778 242.709ZM320.464 242H315.942L327.725 206.799H333.787L345.57 242H341.048L338.261 233.762H323.227L320.464 242ZM324.596 229.679H336.892L330.707 211.37L324.596 229.679ZM368.965 242H364.613V206.799H378.523C379.207 206.799 380.21 206.847 381.114 206.994C386.81 207.874 389.817 212.299 389.817 217.897C389.817 223.495 386.785 227.919 381.114 228.799C380.21 228.946 379.183 228.995 378.523 228.995H368.965V242ZM368.965 210.93V224.864H378.376C378.987 224.864 379.843 224.815 380.576 224.644C383.95 223.886 385.368 220.83 385.368 217.897C385.368 214.963 383.95 211.908 380.576 211.15C379.843 210.979 378.987 210.93 378.376 210.93H368.965ZM409.003 242H404.481L416.263 206.799H422.326L434.108 242H429.586L426.799 233.762H411.765L409.003 242ZM413.134 229.679H425.43L419.246 211.37L413.134 229.679ZM457.552 242H453.152V206.799H457.552L475.911 234.3V206.799H480.311V242H475.911L457.552 214.474V242ZM540.52 242.733C530.816 242.733 524.313 235.742 524.313 224.399C524.313 213.179 530.669 206.09 540.52 206.09C548.392 206.09 553.208 210.025 555.041 216.357L550.641 217.261C549.15 213.008 545.752 210.27 540.74 210.245C532.869 210.196 528.982 215.966 528.933 224.399C528.884 232.833 532.869 238.529 540.74 238.578C547.536 238.627 551.056 234.495 551.594 227.479H544.114V223.886H556.19C556.263 224.57 556.288 225.67 556.288 225.964C556.288 235.62 550.812 242.733 540.52 242.733ZM580.189 242H575.838V206.799H589.747C590.432 206.799 591.434 206.847 592.338 206.994C598.034 207.874 601.041 212.299 601.041 217.897C601.041 222.541 598.963 226.379 594.978 228.042L601.774 242H596.787L590.48 228.995H580.189V242ZM580.189 210.93V224.864H589.6C590.212 224.864 591.067 224.815 591.8 224.644C595.174 223.886 596.592 220.83 596.592 217.897C596.592 214.963 595.174 211.908 591.8 211.15C591.067 210.979 590.212 210.93 589.6 210.93H580.189ZM636.297 242.733C625.761 242.733 619.87 235.253 619.87 224.399C619.87 213.545 625.761 206.065 636.297 206.065C646.833 206.065 652.725 213.545 652.725 224.399C652.725 235.253 646.833 242.733 636.297 242.733ZM636.297 238.578C644.169 238.627 648.105 232.833 648.105 224.399C648.105 215.966 644.169 210.27 636.297 210.221C628.426 210.172 624.539 215.966 624.49 224.399C624.441 232.833 628.426 238.529 636.297 238.578ZM682.678 242H678.326L668.133 206.799H672.679L680.502 234.642L688.3 206.823L692.871 206.799L700.694 234.642L708.492 206.799H713.063L702.87 242H698.518L690.598 214.401L682.678 242ZM745.318 242H740.966V210.93H728.964V206.799H757.32V210.93H745.318V242ZM780.231 242H775.88V206.799H780.231V222.321H798.761V206.799H803.112V242H798.761V226.453H780.231V242ZM861.584 242.733C854.104 242.733 848.554 238.724 847.381 232.246L851.879 231.537C853.004 235.986 856.89 238.602 861.804 238.602C866.522 238.602 870.262 236.255 870.262 232.417C870.262 229.337 867.866 228.017 865.348 227.259L856.377 224.595C852.466 223.446 848.75 221.172 848.75 215.966C848.75 209.732 854.055 206.065 861.071 206.09C868.16 206.138 873.244 209.976 874.54 216.381L869.92 217.188C869.186 212.91 865.495 210.27 861.022 210.221C856.695 210.172 853.346 212.519 853.346 215.77C853.346 219.021 856.597 220.146 859.213 220.879L865.911 222.81C868.966 223.666 874.76 225.402 874.76 232.173C874.76 238.993 868.893 242.733 861.584 242.733ZM907.976 242H903.624V210.93H891.622V206.799H919.978V210.93H907.976V242ZM952.423 242.733C944.258 242.733 938.538 237.38 938.538 229.166V206.823L942.938 206.799V228.799C942.938 235.473 947.974 238.627 952.423 238.627C956.921 238.627 961.908 235.424 961.908 228.799V206.799H966.308V229.166C966.308 237.355 960.588 242.733 952.423 242.733ZM998.674 242H987.82V206.799H998.674C999.359 206.799 1001.46 206.799 1003.12 207.019C1011.26 208.094 1015.49 215.428 1015.49 224.399C1015.49 233.395 1011.26 240.704 1003.12 241.78C1001.49 242 999.334 242 998.674 242ZM992.294 210.954V237.844H998.674C999.896 237.844 1001.61 237.795 1002.76 237.575C1008.53 236.524 1010.87 230.926 1010.87 224.399C1010.87 217.75 1008.45 212.25 1002.76 211.223C1001.61 211.003 999.847 210.954 998.674 210.954H992.294ZM1040.61 242H1036.25V206.799H1040.61V242ZM1077.08 242.733C1066.54 242.733 1060.65 235.253 1060.65 224.399C1060.65 213.545 1066.54 206.065 1077.08 206.065C1087.62 206.065 1093.51 213.545 1093.51 224.399C1093.51 235.253 1087.62 242.733 1077.08 242.733ZM1077.08 238.578C1084.95 238.627 1088.89 232.833 1088.89 224.399C1088.89 215.966 1084.95 210.27 1077.08 210.221C1069.21 210.172 1065.32 215.966 1065.27 224.399C1065.22 232.833 1069.21 238.529 1077.08 238.578Z" fill="#747579"/>
<defs>
<filter id="filter0_f_488_373" x="-2.33427" y="48.6657" width="188.169" height="120.038" filterUnits="userSpaceOnUse" color-interpolation-filters="sRGB">
<feFlood flood-opacity="0" result="BackgroundImageFix"/>
<feBlend mode="normal" in="SourceGraphic" in2="BackgroundImageFix" result="shape"/>
<feGaussianBlur stdDeviation="0.917137" result="effect1_foregroundBlur_488_373"/>
</filter>
<radialGradient id="paint0_radial_488_373" cx="0" cy="0" r="1" gradientUnits="userSpaceOnUse" gradientTransform="translate(50.7899 36.5986) rotate(47) scale(195.691)">
<stop stop-color="#FF6464"/>
<stop offset="0.28" stop-color="#D93636"/>
<stop offset="0.66" stop-color="#D93636"/>
<stop offset="1" stop-color="#FF6464"/>
</radialGradient>
<radialGradient id="paint1_radial_488_373" cx="0" cy="0" r="1" gradientUnits="userSpaceOnUse" gradientTransform="translate(47.8023 31.3702) rotate(44) scale(118.012)">
<stop stop-color="white" stop-opacity="0.31"/>
<stop offset="0.47" stop-color="white" stop-opacity="0.08"/>
<stop offset="1" stop-color="white" stop-opacity="0"/>
</radialGradient>
<radialGradient id="paint2_radial_488_373" cx="0" cy="0" r="1" gradientUnits="userSpaceOnUse" gradientTransform="translate(138.925 159.839) rotate(-120) scale(143.407)">
<stop stop-color="#841918" stop-opacity="0.37"/>
<stop offset="0.62" stop-color="#A82320" stop-opacity="0.11"/>
<stop offset="1" stop-color="#A82320" stop-opacity="0"/>
</radialGradient>
<linearGradient id="paint3_linear_488_373" x1="-0.000611462" y1="126.228" x2="184.486" y2="49.2964" gradientUnits="userSpaceOnUse">
<stop stop-color="#F1F2F4"/>
<stop offset="0.33" stop-color="white"/>
<stop offset="0.78" stop-color="white"/>
<stop offset="1" stop-color="#F8F8F9"/>
</linearGradient>
<clipPath id="clip0_488_373">
<rect width="859.184" height="162.229" fill="white" transform="translate(277.816)"/>
</clipPath>
</defs>
</svg>
